# xmcd CD database file
#
# Track frame offsets:
#	150
#	19772
#	37828
#	56161
#	71397
#	89240
#	110604
#	124890
#	139609
#	155235
#
# Disc length: 2265 seconds
#
# Revision: 1
# Processed by: cddbd v1.5.1PL0 Copyright (c) Steve Scherf et al.
# Submitted via: CDex 1.51
#
DISCID=8e08d70a
DTITLE=Lynn Anderson - What She Does Best
DYEAR=1988
DGENRE=Country
TTITLE0=Under The Boardwalk
TTITLE1=As Long As The Memory Survives
TTITLE2=What She Does Best
TTITLE3=Somebody` Shoulder
TTITLE4=Martha
TTITLE5=How Many Hearts
TTITLE6=Take me Like A Vacation
TTITLE7=It Goes Without Saying
TTITLE8=Turn the Page
TTITLE9=Odds and Ends
EXTD=Mercury\n834 625-2 YEAR: 1988
EXTT0=
EXTT1=
EXTT2=
EXTT3=
EXTT4=
EXTT5=
EXTT6=
EXTT7=
EXTT8=
EXTT9=
PLAYORDER=
